<svg width="136" height="75" viewBox="0 0 136 75" fill="none" xmlns="http://www.w3.org/2000/svg">
<path d="M0 75V66.7188C0 62.6562 1.98333 59.375 5.95 56.875C9.91667 54.375 15.0167 53.125 21.25 53.125C22.4778 53.125 23.6111 53.151 24.65 53.2031C25.6889 53.2552 26.7278 53.3854 27.7667 53.5938C27.0111 55.3646 26.4444 57.1615 26.0667 58.9844C25.6889 60.8073 25.5 62.7604 25.5 64.8438V75H0ZM34 75V64.8438C34 58.0729 37.1403 52.6042 43.4208 48.4375C49.7014 44.2708 57.8944 42.1875 68 42.1875C78.2 42.1875 86.4167 44.2708 92.65 48.4375C98.8833 52.6042 102 58.0729 102 64.8438V75H34ZM110.5 75V64.8438C110.5 62.7604 110.335 60.8073 110.004 58.9844C109.674 57.1615 109.131 55.3646 108.375 53.5938C109.414 53.3854 110.453 53.2552 111.492 53.2031C112.531 53.151 113.617 53.125 114.75 53.125C121.172 53.125 126.319 54.375 130.192 56.875C134.064 59.375 136 62.6562 136 66.7188V75H110.5ZM68 51.5625C60.4444 51.5625 54.3056 52.8125 49.5833 55.3125C44.8611 57.8125 42.5 60.9896 42.5 64.8438V65.625H93.5V64.6875C93.5 60.9375 91.1625 57.8125 86.4875 55.3125C81.8125 52.8125 75.65 51.5625 68 51.5625ZM21.25 48.4375C18.5111 48.4375 16.1736 47.3698 14.2375 45.2344C12.3014 43.099 11.3333 40.5208 11.3333 37.5C11.3333 34.4792 12.3014 31.901 14.2375 29.7656C16.1736 27.6302 18.5111 26.5625 21.25 26.5625C23.9889 26.5625 26.3264 27.6302 28.2625 29.7656C30.1986 31.901 31.1667 34.4792 31.1667 37.5C31.1667 40.5208 30.1986 43.099 28.2625 45.2344C26.3264 47.3698 23.9889 48.4375 21.25 48.4375ZM114.75 48.4375C112.011 48.4375 109.674 47.3698 107.738 45.2344C105.801 43.099 104.833 40.5208 104.833 37.5C104.833 34.4792 105.801 31.901 107.738 29.7656C109.674 27.6302 112.011 26.5625 114.75 26.5625C117.489 26.5625 119.826 27.6302 121.762 29.7656C123.699 31.901 124.667 34.4792 124.667 37.5C124.667 40.5208 123.699 43.099 121.762 45.2344C119.826 47.3698 117.489 48.4375 114.75 48.4375ZM68 37.5C63.2778 37.5 59.2639 35.6771 55.9583 32.0313C52.6528 28.3854 51 23.9583 51 18.75C51 13.4375 52.6528 8.98438 55.9583 5.39063C59.2639 1.79688 63.2778 0 68 0C72.8167 0 76.8542 1.79688 80.1125 5.39063C83.3708 8.98438 85 13.4375 85 18.75C85 23.9583 83.3708 28.3854 80.1125 32.0313C76.8542 35.6771 72.8167 37.5 68 37.5ZM68 9.375C65.6389 9.375 63.6319 10.2604 61.9792 12.0313C60.3264 13.8021 59.5 16.0417 59.5 18.75C59.5 21.3542 60.3264 23.5677 61.9792 25.3906C63.6319 27.2135 65.6389 28.125 68 28.125C70.4556 28.125 72.4861 27.2135 74.0917 25.3906C75.6972 23.5677 76.5 21.3542 76.5 18.75C76.5 16.0417 75.6972 13.8021 74.0917 12.0313C72.4861 10.2604 70.4556 9.375 68 9.375Z" fill="#F2B822"/>
</svg>
