<svg width="106" height="106" viewBox="0 0 106 106" fill="none" xmlns="http://www.w3.org/2000/svg">
<path d="M52.3977 98.04C52.7992 98.04 53.261 97.9295 53.783 97.7084C54.3049 97.4873 54.7265 97.1998 55.0477 96.8461L95.6409 52.005C96.6849 50.8552 97.4678 49.5507 97.9898 48.0914C98.5117 46.632 98.7727 45.1506 98.7727 43.6471C98.7727 42.1435 98.5117 40.64 97.9898 39.1364C97.4678 37.6329 96.6849 36.3062 95.6409 35.1564L73.9591 11.2766C72.9152 10.1268 71.7106 9.2645 70.3455 8.68961C68.9803 8.11473 67.6152 7.82728 66.25 7.82728C64.8848 7.82728 63.5398 8.11473 62.2148 8.68961C60.8898 9.2645 59.7053 10.1268 58.6614 11.2766L56.4932 13.6646L66.25 24.5432C67.2939 25.7814 68.2174 27.2186 69.0205 28.8548C69.8235 30.491 70.225 32.282 70.225 34.2278C70.225 37.5887 69.0405 40.5515 66.6716 43.1164C64.3027 45.6813 61.5924 46.9637 58.5409 46.9637C56.5333 46.9637 54.8671 46.632 53.542 45.9687C52.217 45.3054 50.9924 44.3546 49.8682 43.1164L41.075 33.4318L19.2727 57.4443C18.8712 57.8865 18.5902 58.3509 18.4295 58.8373C18.2689 59.3237 18.1886 59.8323 18.1886 60.363C18.1886 61.5127 18.5299 62.4635 19.2125 63.2153C19.8951 63.967 20.7583 64.3429 21.8023 64.3429C22.2841 64.3429 22.7458 64.2103 23.1875 63.9449C23.6292 63.6796 24.0106 63.37 24.3318 63.0163L40.9545 44.7084L46.0136 50.2804L29.5114 68.4556C29.1098 68.8978 28.8288 69.3842 28.6682 69.9149C28.5076 70.4456 28.4273 70.9762 28.4273 71.5069C28.4273 72.5682 28.7886 73.4969 29.5114 74.2929C30.2341 75.0889 31.0773 75.4869 32.0409 75.4869C32.5227 75.4869 32.9845 75.3763 33.4261 75.1552C33.8678 74.9341 34.2492 74.6466 34.5705 74.2929L51.1932 55.985L56.2523 61.5569L39.75 79.7322C39.4288 80.0859 39.1678 80.5503 38.967 81.1252C38.7663 81.7 38.6659 82.2528 38.6659 82.7835C38.6659 83.8448 39.0273 84.7735 39.75 85.5695C40.4727 86.3655 41.3159 86.7635 42.2795 86.7635C42.7614 86.7635 43.203 86.675 43.6045 86.4981C44.0061 86.3212 44.4076 86.0117 44.8091 85.5695L61.4318 67.2616L66.4909 72.8335L49.8682 91.1414C49.4667 91.5836 49.1856 92.0701 49.025 92.6008C48.8644 93.1314 48.7841 93.6179 48.7841 94.0601C48.7841 95.2983 49.1053 96.2712 49.7477 96.9787C50.3902 97.6863 51.2735 98.04 52.3977 98.04ZM52.3977 106C49.7477 106 47.3788 104.917 45.2909 102.75C43.203 100.583 41.9583 97.9074 41.5568 94.7234C38.8265 94.2812 36.5379 93.043 34.6909 91.0088C32.8439 88.9745 31.7197 86.4539 31.3182 83.4468C28.5879 83.0046 26.3193 81.7443 24.5125 79.6658C22.7057 77.5874 21.6015 75.0889 21.2 72.1702C18.2288 71.728 15.7795 70.4013 13.8523 68.1902C11.925 65.9791 10.9614 63.3258 10.9614 60.2303C10.9614 58.7267 11.2223 57.2232 11.7443 55.7197C12.2663 54.2161 13.0492 52.8894 14.0932 51.7397L41.075 22.0225L54.325 36.6158C54.9674 37.3233 55.6701 37.8761 56.433 38.2741C57.1958 38.6721 57.9386 38.8711 58.6614 38.8711C59.7053 38.8711 60.689 38.3625 61.6125 37.3454C62.536 36.3283 62.9977 35.2449 62.9977 34.0951C62.9977 33.5645 62.8572 32.9675 62.5761 32.3041C62.2951 31.6408 61.8333 30.9554 61.1909 30.2478L43.9659 11.2766C42.922 10.1268 41.7174 9.2645 40.3523 8.68961C38.9871 8.11473 37.622 7.82728 36.2568 7.82728C34.8917 7.82728 33.5466 8.11473 32.2216 8.68961C30.8966 9.2645 29.7121 10.1268 28.6682 11.2766L10.3591 31.4418C9.23485 32.68 8.45189 33.9846 8.01023 35.3554C7.56856 36.7263 7.30758 38.252 7.22727 39.9324C7.14697 41.7013 7.44811 43.4038 8.13068 45.04C8.81326 46.6763 9.63636 48.1577 10.6 49.4844L5.42045 55.189C3.81439 53.2432 2.50947 50.8995 1.50568 48.1577C0.501894 45.4159 0 42.63 0 39.7997C0 37.1464 0.461743 34.6037 1.38523 32.1715C2.30871 29.7393 3.61364 27.5945 5.3 25.7372L23.4886 5.70463C25.2553 3.75886 27.2629 2.32165 29.5114 1.39299C31.7598 0.464329 34.0485 0 36.3773 0C38.7061 0 40.9746 0.464329 43.183 1.39299C45.3913 2.32165 47.3788 3.75886 49.1455 5.70463L51.3136 8.09262L53.4818 5.70463C55.2485 3.75886 57.2561 2.32165 59.5045 1.39299C61.753 0.464329 64.0417 0 66.3705 0C68.6992 0 70.9678 0.464329 73.1761 1.39299C75.3845 2.32165 77.372 3.75886 79.1386 5.70463L100.7 29.4518C102.467 31.3976 103.792 33.6087 104.675 36.0851C105.558 38.5615 106 41.0822 106 43.6471C106 46.2119 105.558 48.7105 104.675 51.1427C103.792 53.5749 102.467 55.7639 100.7 57.7096L60.1068 102.418C59.0629 103.568 57.8784 104.452 56.5534 105.071C55.2284 105.69 53.8432 106 52.3977 106Z" fill="#F2B822"/>
</svg>
