<svg width="220" height="220" viewBox="0 0 220 220" fill="none" xmlns="http://www.w3.org/2000/svg">
<path d="M0.5 65C0.5 29.4261 29.4261 0.5 65 0.5H155C190.574 0.5 219.5 29.4261 219.5 65V155C219.5 190.574 190.574 219.5 155 219.5H65C29.4261 219.5 0.5 190.574 0.5 155V65ZM180.5 50C180.5 44.2239 175.776 39.5 170 39.5C164.224 39.5 159.5 44.2239 159.5 50C159.5 55.7761 164.224 60.5 170 60.5C175.776 60.5 180.5 55.7761 180.5 50ZM165.5 110C165.5 79.3739 140.626 54.5 110 54.5C79.3739 54.5 54.5 79.3739 54.5 110C54.5 140.626 79.3739 165.5 110 165.5C140.626 165.5 165.5 140.626 165.5 110ZM65.5 110C65.5 85.4761 85.4761 65.5 110 65.5C134.524 65.5 154.5 85.4761 154.5 110C154.5 134.524 134.524 154.5 110 154.5C85.4761 154.5 65.5 134.524 65.5 110Z" fill="white" stroke="black"/>
</svg>
