<svg width="230" height="230" viewBox="0 0 230 230" fill="none" xmlns="http://www.w3.org/2000/svg">
<path d="M115 0C51.59 0 0 51.585 0 115C0 178.415 51.59 230 115 230C178.41 230 230 178.415 230 115C230 51.585 178.41 0 115 0ZM80 165H60V90H80V165ZM70 75C64.475 75 60 70.525 60 65C60 59.475 64.475 55 70 55C75.525 55 80 59.475 80 65C80 70.525 75.525 75 70 75ZM175 165H155V140V127.5C155 117.875 147.125 110 137.5 110C127.875 110 120 117.875 120 127.5V165H100V90H120V99.08C125.84 93.47 133.76 90 142.5 90C160.45 90 175 104.55 175 122.5V165Z" fill="white"/>
</svg>
