<svg width="28" height="41" viewBox="0 0 28 41" fill="none" xmlns="http://www.w3.org/2000/svg">
<path d="M14 29.5425C17.4667 26.7245 20.0833 24.0155 21.85 21.4156C23.6167 18.8156 24.5 16.3918 24.5 14.1441C24.5 12.1647 24.1417 10.4873 23.425 9.11188C22.7083 7.73642 21.825 6.61257 20.775 5.74032C19.725 4.86808 18.5833 4.23906 17.35 3.85326C16.1167 3.46746 15 3.27456 14 3.27456C13 3.27456 11.8833 3.46746 10.65 3.85326C9.41667 4.23906 8.275 4.86808 7.225 5.74032C6.175 6.61257 5.29167 7.73642 4.575 9.11188C3.85833 10.4873 3.5 12.1647 3.5 14.1441C3.5 16.3918 4.38333 18.8156 6.15 21.4156C7.91667 24.0155 10.5333 26.7245 14 29.5425ZM14 33.367C9.43333 29.9116 6.04167 26.6071 3.825 23.4536C1.60833 20.3001 0.5 17.1969 0.5 14.1441C0.5 11.8628 0.908334 9.85832 1.725 8.13061C2.54167 6.40289 3.6 4.95195 4.9 3.77777C6.2 2.6036 7.65 1.72297 9.25 1.13588C10.85 0.548793 12.4333 0.255249 14 0.255249C15.5667 0.255249 17.15 0.548793 18.75 1.13588C20.35 1.72297 21.8 2.6036 23.1 3.77777C24.4 4.95195 25.4583 6.40289 26.275 8.13061C27.0917 9.85832 27.5 11.8628 27.5 14.1441C27.5 17.1969 26.3917 20.3001 24.175 23.4536C21.9583 26.6071 18.5667 29.9116 14 33.367ZM14 17.3647C14.9667 17.3647 15.7917 17.0208 16.475 16.3331C17.1583 15.6453 17.5 14.815 17.5 13.8421C17.5 12.8692 17.1583 12.0389 16.475 11.3512C15.7917 10.6635 14.9667 10.3196 14 10.3196C13.0333 10.3196 12.2083 10.6635 11.525 11.3512C10.8417 12.0389 10.5 12.8692 10.5 13.8421C10.5 14.815 10.8417 15.6453 11.525 16.3331C12.2083 17.0208 13.0333 17.3647 14 17.3647ZM0.5 40.5127V37.4934H27.5V40.5127H0.5Z" fill="white"/>
</svg>
