<svg width="30" height="40" viewBox="0 0 30 40" fill="none" xmlns="http://www.w3.org/2000/svg">
<path d="M15 29.1C18.8519 26.3 21.7593 23.6083 23.7222 21.025C25.6852 18.4417 26.6667 16.0333 26.6667 13.8C26.6667 11.8333 26.2685 10.1667 25.4722 8.8C24.6759 7.43333 23.6944 6.31667 22.5278 5.45C21.3611 4.58333 20.0926 3.95833 18.7222 3.575C17.3519 3.19167 16.1111 3 15 3C13.8889 3 12.6481 3.19167 11.2778 3.575C9.90741 3.95833 8.63889 4.58333 7.47222 5.45C6.30556 6.31667 5.32407 7.43333 4.52778 8.8C3.73148 10.1667 3.33333 11.8333 3.33333 13.8C3.33333 16.0333 4.31481 18.4417 6.27778 21.025C8.24074 23.6083 11.1481 26.3 15 29.1ZM15 32.9C9.92593 29.4667 6.15741 26.1833 3.69444 23.05C1.23148 19.9167 0 16.8333 0 13.8C0 11.5333 0.453704 9.54167 1.36111 7.825C2.26852 6.10833 3.44444 4.66667 4.88889 3.5C6.33333 2.33333 7.94444 1.45833 9.72222 0.875C11.5 0.291667 13.2593 0 15 0C16.7407 0 18.5 0.291667 20.2778 0.875C22.0556 1.45833 23.6667 2.33333 25.1111 3.5C26.5556 4.66667 27.7315 6.10833 28.6389 7.825C29.5463 9.54167 30 11.5333 30 13.8C30 16.8333 28.7685 19.9167 26.3056 23.05C23.8426 26.1833 20.0741 29.4667 15 32.9ZM15 17C16.0741 17 16.9907 16.6583 17.75 15.975C18.5093 15.2917 18.8889 14.4667 18.8889 13.5C18.8889 12.5333 18.5093 11.7083 17.75 11.025C16.9907 10.3417 16.0741 10 15 10C13.9259 10 13.0093 10.3417 12.25 11.025C11.4907 11.7083 11.1111 12.5333 11.1111 13.5C11.1111 14.4667 11.4907 15.2917 12.25 15.975C13.0093 16.6583 13.9259 17 15 17ZM0 40V37H30V40H0Z" fill="#fff"/>
</svg>