<svg width="106" height="106" viewBox="0 0 106 106" fill="none" xmlns="http://www.w3.org/2000/svg">
<path d="M53.53 83.8725C54.9433 83.8725 56.1358 83.3867 57.1075 82.415C58.0792 81.4433 58.565 80.2508 58.565 78.8375C58.565 77.4242 58.0792 76.2317 57.1075 75.26C56.1358 74.2883 54.9433 73.8025 53.53 73.8025C52.1167 73.8025 50.9242 74.2883 49.9525 75.26C48.9808 76.2317 48.495 77.4242 48.495 78.8375C48.495 80.2508 48.9808 81.4433 49.9525 82.415C50.9242 83.3867 52.1167 83.8725 53.53 83.8725ZM48.8925 64.5275H56.71C56.71 62.2308 56.9971 60.1329 57.5713 58.2338C58.1454 56.3346 59.9342 54.1483 62.9375 51.675C65.6758 49.3783 67.6192 47.1258 68.7675 44.9175C69.9158 42.7092 70.49 40.28 70.49 37.63C70.49 32.9483 68.9662 29.1942 65.9187 26.3675C62.8712 23.5408 58.83 22.1275 53.795 22.1275C49.4667 22.1275 45.6463 23.2096 42.3338 25.3738C39.0213 27.5379 36.6142 30.5192 35.1125 34.3175L42.135 36.9675C43.1067 34.4942 44.5642 32.5729 46.5075 31.2037C48.4508 29.8346 50.7475 29.15 53.3975 29.15C56.4008 29.15 58.83 29.9671 60.685 31.6013C62.54 33.2354 63.4675 35.3333 63.4675 37.895C63.4675 39.8383 62.8933 41.6712 61.745 43.3937C60.5967 45.1162 58.9183 46.905 56.71 48.76C54.06 51.0567 52.0946 53.3313 50.8138 55.5838C49.5329 57.8363 48.8925 60.8175 48.8925 64.5275ZM53 106C45.7567 106 38.9108 104.609 32.4625 101.826C26.0142 99.0437 20.3829 95.2454 15.5688 90.4313C10.7546 85.6171 6.95625 79.9858 4.17375 73.5375C1.39125 67.0892 0 60.2433 0 53C0 45.6683 1.39125 38.7783 4.17375 32.33C6.95625 25.8817 10.7546 20.2725 15.5688 15.5025C20.3829 10.7325 26.0142 6.95625 32.4625 4.17375C38.9108 1.39125 45.7567 0 53 0C60.3317 0 67.2217 1.39125 73.67 4.17375C80.1183 6.95625 85.7275 10.7325 90.4975 15.5025C95.2675 20.2725 99.0437 25.8817 101.826 32.33C104.609 38.7783 106 45.6683 106 53C106 60.2433 104.609 67.0892 101.826 73.5375C99.0437 79.9858 95.2675 85.6171 90.4975 90.4313C85.7275 95.2454 80.1183 99.0437 73.67 101.826C67.2217 104.609 60.3317 106 53 106ZM53 98.05C65.5433 98.05 76.1875 93.6554 84.9325 84.8663C93.6775 76.0771 98.05 65.455 98.05 53C98.05 40.4567 93.6775 29.8125 84.9325 21.0675C76.1875 12.3225 65.5433 7.95 53 7.95C40.545 7.95 29.9229 12.3225 21.1338 21.0675C12.3446 29.8125 7.95 40.4567 7.95 53C7.95 65.455 12.3446 76.0771 21.1338 84.8663C29.9229 93.6554 40.545 98.05 53 98.05Z" fill="#F2B822"/>
</svg>
