<svg width="18" height="19" viewBox="0 0 18 19" fill="none" xmlns="http://www.w3.org/2000/svg">
<path d="M16.9 18.5026L10.325 11.8852C9.825 12.3214 9.24167 12.661 8.575 12.9043C7.90833 13.1475 7.2 13.2691 6.45 13.2691C4.65 13.2691 3.125 12.6401 1.875 11.382C0.625 10.124 0 8.60594 0 6.82791C0 5.04987 0.625 3.53183 1.875 2.27379C3.125 1.01574 4.64167 0.386719 6.425 0.386719C8.19167 0.386719 9.69583 1.01574 10.9375 2.27379C12.1792 3.53183 12.8 5.04987 12.8 6.82791C12.8 7.54918 12.6833 8.2453 12.45 8.91626C12.2167 9.58722 11.8667 10.2162 11.4 10.8033L18 17.3955L16.9 18.5026ZM6.425 11.7594C7.775 11.7594 8.925 11.2772 9.875 10.3127C10.825 9.34819 11.3 8.18659 11.3 6.82791C11.3 5.46922 10.825 4.30762 9.875 3.34312C8.925 2.37862 7.775 1.89637 6.425 1.89637C5.05833 1.89637 3.89583 2.37862 2.9375 3.34312C1.97917 4.30762 1.5 5.46922 1.5 6.82791C1.5 8.18659 1.97917 9.34819 2.9375 10.3127C3.89583 11.2772 5.05833 11.7594 6.425 11.7594V11.7594Z" fill="#F5F5F5"/>
</svg>
