<svg width="216" height="160" viewBox="0 0 216 160" fill="none" xmlns="http://www.w3.org/2000/svg">
<path d="M209.492 27.5C207.5 16.5039 198.008 8.49609 186.992 5.99609C170.508 2.5 140 0 106.992 0C74.0039 0 43.0078 2.5 26.5039 5.99609C15.5078 8.49609 5.9961 15.9961 4.00391 27.5C1.99219 40 0 57.5 0 80C0 102.5 1.99219 120 4.49219 132.5C6.5039 143.496 15.9961 151.504 26.9922 154.004C44.4922 157.5 74.4922 160 107.5 160C140.508 160 170.508 157.5 188.008 154.004C199.004 151.504 208.496 144.004 210.508 132.5C212.5 120 215 101.992 215.508 80C214.492 57.5 211.992 40 209.492 27.5ZM80 115V45L140.996 80L80 115Z" fill="white"/>
</svg>
